Coordinates
version=1
nRows=14
nColumns=40
inDegrees=yes

Units are S.I. units (second, meters, Newtons, ...)
Angles are in degrees.

endheader
time	pelvis_tilt	pelvis_list	pelvis_rotation	pelvis_tx	pelvis_ty	pelvis_tz	hip_flexion_r	hip_adduction_r	hip_rotation_r	knee_angle_r	knee_angle_r_beta	ankle_angle_r	subtalar_angle_r	mtp_angle_r	hip_flexion_l	hip_adduction_l	hip_rotation_l	knee_angle_l	knee_angle_l_beta	ankle_angle_l	subtalar_angle_l	mtp_angle_l	lumbar_extension	lumbar_bending	lumbar_rotation	arm_flex_r	arm_add_r	arm_rot_r	elbow_flex_r	pro_sup_r	wrist_flex_r	wrist_dev_r	arm_flex_l	arm_add_l	arm_rot_l	elbow_flex_l	pro_sup_l	wrist_flex_l	wrist_dev_l
      8.03500000	     -6.40506772	     -2.96123442	     -2.66853240	      0.75769144	      0.92574678	      0.43980683	     29.10675209	     -2.74225937	    -14.06900470	     15.87423699	     15.87423699	      2.54184064	      3.07394132	      5.35242468	      5.03792722	     -2.44049884	    -11.31530581	     12.71797785	     12.71797785	     15.80793742	     -4.06374206	     -5.44634610	    -10.17361984	      4.01541032	      0.84537770	    -14.94743535	    -11.72307577	     -6.14263335	     26.64282019	     46.69548540	      0.00000000	      0.00000000	     18.56406878	    -18.85197808	    -12.15232556	     77.75385410	     47.31143489	      0.00000000	      0.00000000
      8.04850000	     -6.25986536	     -2.77484393	     -2.79937770	      0.75913794	      0.92455269	      0.44145579	     28.56509403	     -2.62525569	    -15.27154791	     14.55301846	     14.55301846	      2.55760919	      4.70882260	      6.75142117	      3.97600925	     -2.24326134	    -11.47764582	     12.13040071	     12.13040071	     16.01090419	     -3.86590908	     -5.93973128	    -10.18860402	      3.91697774	      0.85558926	    -15.56741970	    -11.53812078	     -6.37857246	     26.92787781	     46.68401942	      0.00000000	      0.00000000	     18.40337298	    -18.74193945	    -12.30221747	     78.81022485	     47.36117713	      0.00000000	      0.00000000
      8.06200000	     -6.34219742	     -2.56624976	     -2.95245874	      0.76043622	      0.92273810	      0.44328919	     28.69165639	     -2.51673106	    -15.59499800	     14.40764339	     14.40764339	      2.40353579	      4.60135584	      6.84868135	      3.47297023	     -2.09663395	    -11.54162899	     12.14982812	     12.14982812	     16.46296195	     -3.98849966	     -6.10104600	     -9.88963718	      3.84988012	      0.80510132	    -15.65308714	    -11.46801140	     -6.37703705	     26.91185626	     46.68341057	      0.00000000	      0.00000000	     18.40559572	    -18.72949221	    -12.30325883	     78.84937419	     47.36238518	      0.00000000	      0.00000000
      8.07550000	     -6.28423065	     -2.56360089	     -3.04281335	      0.76228409	      0.92169611	      0.44530721	     27.89134024	     -2.15779419	    -16.51772748	     13.28675339	     13.28675339	      1.74855943	      5.65123656	      6.77413091	      2.51112377	     -2.13581675	    -11.61156615	     11.64017944	     11.64017944	     16.88755492	     -3.68923839	     -6.03786890	     -9.73708782	      3.93620796	      0.84007099	    -15.94839169	    -11.21562259	     -6.52322464	     27.09490970	     46.66927063	      0.00000000	      0.00000000	     17.76924457	    -18.45302517	    -12.54540806	     79.94075586	     47.42303034	      0.00000000	      0.00000000
      8.08900000	     -6.24742309	     -2.51898257	     -3.13580178	      0.76411617	      0.92032565	      0.44739810	     27.52915567	     -1.90756184	    -16.70286113	     13.23652066	     13.23652066	      0.84313923	      5.34899155	      4.55497261	      1.85349052	     -2.19486390	    -11.69314859	     11.70781330	     11.70781330	     17.67400736	     -3.48857094	     -5.38354046	     -9.54186297	      4.01789816	      0.67607374	    -15.73231417	    -11.11662959	     -6.50731406	     27.04574801	     46.64887799	      0.00000000	      0.00000000	     17.11580434	    -18.24697678	    -12.92016771	     80.59910522	     47.50332454	      0.00000000	      0.00000000
      8.10250000	     -6.24761313	     -2.55718130	     -3.22690289	      0.76595456	      0.91910745	      0.44956556	     27.27479281	     -1.65833715	    -16.82890545	     13.64409595	     13.64409595	      0.77817217	      5.14924729	      4.36160972	      1.27779372	     -2.34975226	    -11.65669929	     11.81952063	     11.81952063	     18.08787845	     -3.62188174	     -5.45015492	     -9.29270047	      4.23468857	      0.78444389	    -15.47156885	    -10.99492811	     -6.47606374	     27.11910810	     46.64448491	      0.00000000	      0.00000000	     16.70484944	    -17.91575712	    -12.79818350	     80.48518133	     47.49250503	      0.00000000	      0.00000000
      8.11600000	     -6.15397142	     -2.66894235	     -3.30809340	      0.76792059	      0.91815830	      0.45179481	     26.98400988	     -1.39732082	    -16.78980937	     14.38376420	     14.38376420	      0.86380492	      4.75821915	      3.87630850	      0.66686791	     -2.60177377	    -11.61191182	     12.07484711	     12.07484711	     18.48058424	     -3.81249833	     -5.40796571	     -9.16627022	      4.55534870	      0.91408020	    -15.05446763	    -10.97842080	     -6.44845440	     27.21839061	     46.64076759	      0.00000000	      0.00000000	     16.16814673	    -17.49825035	    -12.65833474	     80.32548958	     47.47925526	      0.00000000	      0.00000000
      8.12950000	     -6.16678186	     -2.59171273	     -3.35413736	      0.76961756	      0.91697530	      0.45408451	     27.13388232	     -1.35085895	    -16.09472283	     15.72556095	     15.72556095	      0.72941893	      3.20130777	      1.89328674	      0.47957599	     -2.71902038	    -11.52324549	     12.88807754	     12.88807754	     19.22724876	     -4.09189703	     -4.70042192	     -8.93192218	      4.59962451	      0.83147189	    -14.38608453	    -11.00329942	     -6.34529555	     27.21060775	     46.63426255	      0.00000000	      0.00000000	     15.60570311	    -17.30659708	    -12.78209900	     80.13720052	     47.49142976	      0.00000000	      0.00000000
      8.14300000	     -6.00639159	     -2.72473047	     -3.39573309	      0.77164679	      0.91656069	      0.45657494	     26.51143612	     -0.89257364	    -15.17359949	     15.93546205	     15.93546205	     -0.75473509	      1.19505449	     -3.33952405	      0.21151984	     -3.12969879	    -11.55679366	     14.05520597	     14.05520597	     20.80027203	     -3.77196426	     -1.86921414	     -8.89051762	      4.92131425	      0.56197533	    -13.15232619	    -11.10913095	     -5.83742515	     26.61084454	     46.61148352	      0.00000000	      0.00000000	     14.54111749	    -16.85009970	    -13.39050266	     80.12171157	     47.56940192	      0.00000000	      0.00000000
      8.15650000	     -5.78528447	     -2.85965206	     -3.47385451	      0.77358282	      0.91665578	      0.45896958	     26.06203223	     -0.66599518	    -14.88118215	     16.80532599	     16.80532599	     -0.23726847	      0.87643213	     -3.73696153	     -0.25842884	     -3.46886126	    -11.48809085	     14.79167234	     14.79167234	     20.89973446	     -4.20561830	     -1.89001099	     -8.98424287	      5.24334841	      0.77425802	    -12.29581387	    -11.15939524	     -5.82034860	     26.89634318	     46.60490661	      0.00000000	      0.00000000	     13.74543988	    -16.22654941	    -13.12545271	     79.72911922	     47.54154722	      0.00000000	      0.00000000
      8.17000000	     -5.84869044	     -2.92680876	     -3.43982783	      0.77499318	      0.91637161	      0.46143450	     26.16774747	     -0.45316456	    -13.99917882	     18.02836344	     18.02836344	      0.35672526	     -0.80231541	     -4.31022348	      0.17799551	     -3.86084856	    -11.04209797	     16.56739162	     16.56739162	     21.14983031	     -5.17284732	     -1.66779505	     -8.76322212	      5.50702572	      0.57628539	    -11.14925370	    -11.29037852	     -5.77229833	     27.16180139	     46.59514237	      0.00000000	      0.00000000	     12.93087721	    -15.98424011	    -13.15775378	     78.83273551	     47.53341239	      0.00000000	      0.00000000
      8.18350000	     -5.57033303	     -3.09468299	     -3.44792362	      0.77664758	      0.91705263	      0.46398432	     25.63063669	     -0.15149519	    -13.53023904	     18.77973261	     18.77973261	      1.00877423	     -1.54654052	     -4.65967663	      0.14778848	     -4.33233067	    -10.75421228	     18.18199805	     18.18199805	     21.13789678	     -6.02356281	     -1.65243780	     -8.96826851	      5.80056084	      0.63394386	     -9.94408674	    -11.43241418	     -5.77183940	     27.51479934	     46.58870337	      0.00000000	      0.00000000	     12.13407988	    -15.51085283	    -13.03324210	     78.10977173	     47.51172103	      0.00000000	      0.00000000
      8.19700000	     -5.54678368	     -3.20535689	     -3.41275443	      0.77795370	      0.91769029	      0.46661103	     25.28441967	      0.16555794	    -12.91800710	     19.27714905	     19.27714905	      1.61245011	     -2.55841155	     -4.84258916	      0.72267833	     -4.82005555	    -10.35276584	     20.31218318	     20.31218318	     20.91683483	     -7.11998457	     -1.69627424	     -8.88822798	      6.05976353	      0.49443800	     -8.54361400	    -11.51609098	     -5.79255527	     27.93870446	     46.58071497	      0.00000000	      0.00000000	     11.13259578	    -15.00421678	    -12.96905976	     76.96646635	     47.48759878	      0.00000000	      0.00000000
      8.21050000	     -5.14931297	     -3.13360871	     -3.49809288	      0.77964452	      0.91924426	      0.46925397	     24.39524194	      0.27025061	    -12.45709069	     19.54639948	     19.54639948	      2.32194895	     -2.73910450	     -5.07484268	      0.69995213	     -5.06454797	    -10.26937797	     22.11016922	     22.11016922	     20.42395202	     -7.86049912	     -1.80249911	     -9.25000274	      6.05032549	      0.78505693	     -7.20634595	    -11.58926140	     -5.80910105	     28.41833235	     46.57252634	      0.00000000	      0.00000000	     10.11819991	    -14.18965946	    -12.65726016	     76.25391452	     47.44853607	      0.00000000	      0.00000000
